<?xml version="1.0" encoding="UTF-8" standalone="no"?>
<!DOCTYPE svg PUBLIC "-//W3C//DTD SVG 1.1//EN"
 "http://www.w3.org/Graphics/SVG/1.1/DTD/svg11.dtd">
<!-- Generated by graphviz version 2.38.0 (20140413.2041)
 -->
<!-- Title: G Pages: 1 -->
<svg width="792pt" height="636pt"
 viewBox="0.00 0.00 791.87 636.00" xmlns="http://www.w3.org/2000/svg" xmlns:xlink="http://www.w3.org/1999/xlink">
<g id="graph0" class="graph" transform="scale(1 1) rotate(0) translate(4 632)">
<title>G</title>
<polygon fill="white" stroke="none" points="-4,4 -4,-632 787.866,-632 787.866,4 -4,4"/>
<g id="clust1" class="cluster"><title>cluster_Global</title>
<path fill="none" stroke="gray" d="M209.979,-44C209.979,-44 763.866,-44 763.866,-44 769.866,-44 775.866,-50 775.866,-56 775.866,-56 775.866,-608 775.866,-608 775.866,-614 769.866,-620 763.866,-620 763.866,-620 209.979,-620 209.979,-620 203.979,-620 197.979,-614 197.979,-608 197.979,-608 197.979,-56 197.979,-56 197.979,-50 203.979,-44 209.979,-44"/>
<text text-anchor="middle" x="486.922" y="-607.2" font-family="Times New Roman,serif" font-size="11.00" fill="gray">Global</text>
</g>
<g id="clust2" class="cluster"><title>cluster_\MrCrankHank</title>
<path fill="none" stroke="gray" d="M217.979,-52C217.979,-52 755.866,-52 755.866,-52 761.866,-52 767.866,-58 767.866,-64 767.866,-64 767.866,-580 767.866,-580 767.866,-586 761.866,-592 755.866,-592 755.866,-592 217.979,-592 217.979,-592 211.979,-592 205.979,-586 205.979,-580 205.979,-580 205.979,-64 205.979,-64 205.979,-58 211.979,-52 217.979,-52"/>
<text text-anchor="middle" x="486.922" y="-579.2" font-family="Times New Roman,serif" font-size="11.00" fill="gray">MrCrankHank</text>
</g>
<g id="clust3" class="cluster"><title>cluster_\MrCrankHank\ConsoleAccess</title>
<path fill="none" stroke="gray" d="M225.979,-60C225.979,-60 747.866,-60 747.866,-60 753.866,-60 759.866,-66 759.866,-72 759.866,-72 759.866,-552 759.866,-552 759.866,-558 753.866,-564 747.866,-564 747.866,-564 225.979,-564 225.979,-564 219.979,-564 213.979,-558 213.979,-552 213.979,-552 213.979,-72 213.979,-72 213.979,-66 219.979,-60 225.979,-60"/>
<text text-anchor="middle" x="486.922" y="-551.2" font-family="Times New Roman,serif" font-size="11.00" fill="gray">ConsoleAccess</text>
</g>
<g id="clust4" class="cluster"><title>cluster_\MrCrankHank\ConsoleAccess\Adapters</title>
<path fill="none" stroke="gray" d="M589.366,-168C589.366,-168 679.366,-168 679.366,-168 685.366,-168 691.366,-174 691.366,-180 691.366,-180 691.366,-336 691.366,-336 691.366,-342 685.366,-348 679.366,-348 679.366,-348 589.366,-348 589.366,-348 583.366,-348 577.366,-342 577.366,-336 577.366,-336 577.366,-180 577.366,-180 577.366,-174 583.366,-168 589.366,-168"/>
<text text-anchor="middle" x="634.366" y="-335.2" font-family="Times New Roman,serif" font-size="11.00" fill="gray">Adapters</text>
</g>
<g id="clust5" class="cluster"><title>cluster_\MrCrankHank\ConsoleAccess\Exceptions</title>
<path fill="none" stroke="gray" d="M264.479,-356C264.479,-356 739.866,-356 739.866,-356 745.866,-356 751.866,-362 751.866,-368 751.866,-368 751.866,-524 751.866,-524 751.866,-530 745.866,-536 739.866,-536 739.866,-536 264.479,-536 264.479,-536 258.479,-536 252.479,-530 252.479,-524 252.479,-524 252.479,-368 252.479,-368 252.479,-362 258.479,-356 264.479,-356"/>
<text text-anchor="middle" x="502.172" y="-523.2" font-family="Times New Roman,serif" font-size="11.00" fill="gray">Exceptions</text>
</g>
<g id="clust6" class="cluster"><title>cluster_\MrCrankHank\ConsoleAccess\Interfaces</title>
<path fill="none" stroke="gray" d="M233.979,-141C233.979,-141 390.979,-141 390.979,-141 396.979,-141 402.979,-147 402.979,-153 402.979,-153 402.979,-255 402.979,-255 402.979,-261 396.979,-267 390.979,-267 390.979,-267 233.979,-267 233.979,-267 227.979,-267 221.979,-261 221.979,-255 221.979,-255 221.979,-153 221.979,-153 221.979,-147 227.979,-141 233.979,-141"/>
<text text-anchor="middle" x="312.479" y="-254.2" font-family="Times New Roman,serif" font-size="11.00" fill="gray">Interfaces</text>
</g>
<!-- \\MrCrankHank\\ConsoleAccess\\Adapters\\DummyAdapter -->
<g id="node1" class="node"><title>\\MrCrankHank\\ConsoleAccess\\Adapters\\DummyAdapter</title>
<polygon fill="none" stroke="black" points="683.366,-320 585.366,-320 585.366,-284 683.366,-284 683.366,-320"/>
<text text-anchor="middle" x="634.366" y="-299.2" font-family="Courier,monospace" font-size="11.00">DummyAdapter</text>
</g>
<!-- \\MrCrankHank\\ConsoleAccess\\Interfaces\\AdapterInterface -->
<g id="node8" class="node"><title>\\MrCrankHank\\ConsoleAccess\\Interfaces\\AdapterInterface</title>
<polygon fill="none" stroke="black" points="374.979,-239 249.979,-239 249.979,-203 374.979,-203 374.979,-239"/>
<text text-anchor="middle" x="312.479" y="-218.2" font-family="Courier,monospace" font-size="11.00">AdapterInterface</text>
</g>
<!-- \\MrCrankHank\\ConsoleAccess\\Adapters\\DummyAdapter&#45;&gt;\\MrCrankHank\\ConsoleAccess\\Interfaces\\AdapterInterface -->
<g id="edge1" class="edge"><title>\\MrCrankHank\\ConsoleAccess\\Adapters\\DummyAdapter&#45;&gt;\\MrCrankHank\\ConsoleAccess\\Interfaces\\AdapterInterface</title>
<path fill="none" stroke="black" stroke-dasharray="1,5" d="M585.279,-290.102C566.433,-285.421 544.629,-279.983 524.866,-275 478.381,-263.279 426.192,-249.949 385.3,-239.465"/>
<polygon fill="none" stroke="black" points="385.982,-236.027 375.426,-236.932 384.243,-242.807 385.982,-236.027"/>
</g>
<!-- \\MrCrankHank\\ConsoleAccess\\Adapters\\LocalAdapter -->
<g id="node2" class="node"><title>\\MrCrankHank\\ConsoleAccess\\Adapters\\LocalAdapter</title>
<polygon fill="none" stroke="black" points="683.366,-266 585.366,-266 585.366,-230 683.366,-230 683.366,-266"/>
<text text-anchor="middle" x="634.366" y="-245.2" font-family="Courier,monospace" font-size="11.00">LocalAdapter</text>
</g>
<!-- \\MrCrankHank\\ConsoleAccess\\Adapters\\LocalAdapter&#45;&gt;\\MrCrankHank\\ConsoleAccess\\Interfaces\\AdapterInterface -->
<g id="edge2" class="edge"><title>\\MrCrankHank\\ConsoleAccess\\Adapters\\LocalAdapter&#45;&gt;\\MrCrankHank\\ConsoleAccess\\Interfaces\\AdapterInterface</title>
<path fill="none" stroke="black" stroke-dasharray="1,5" d="M585.129,-243.929C532.084,-239.451 446.297,-232.211 385.329,-227.065"/>
<polygon fill="none" stroke="black" points="385.268,-223.547 375.009,-226.193 384.679,-230.522 385.268,-223.547"/>
</g>
<!-- \\MrCrankHank\\ConsoleAccess\\Adapters\\SshAdapter -->
<g id="node3" class="node"><title>\\MrCrankHank\\ConsoleAccess\\Adapters\\SshAdapter</title>
<polygon fill="none" stroke="black" points="676.366,-212 592.366,-212 592.366,-176 676.366,-176 676.366,-212"/>
<text text-anchor="middle" x="634.366" y="-191.2" font-family="Courier,monospace" font-size="11.00">SshAdapter</text>
</g>
<!-- \\MrCrankHank\\ConsoleAccess\\Adapters\\SshAdapter&#45;&gt;\\MrCrankHank\\ConsoleAccess\\Interfaces\\AdapterInterface -->
<g id="edge3" class="edge"><title>\\MrCrankHank\\ConsoleAccess\\Adapters\\SshAdapter&#45;&gt;\\MrCrankHank\\ConsoleAccess\\Interfaces\\AdapterInterface</title>
<path fill="none" stroke="black" stroke-dasharray="1,5" d="M592.201,-197.475C539.904,-201.889 448.795,-209.579 385.022,-214.961"/>
<polygon fill="none" stroke="black" points="384.701,-211.476 375.031,-215.805 385.29,-218.451 384.701,-211.476"/>
</g>
<!-- \\MrCrankHank\\ConsoleAccess\\Exceptions\\BaseException -->
<g id="node4" class="node"><title>\\MrCrankHank\\ConsoleAccess\\Exceptions\\BaseException</title>
<polygon fill="none" stroke="black" points="364.479,-454 260.479,-454 260.479,-418 364.479,-418 364.479,-454"/>
<text text-anchor="middle" x="312.479" y="-433.2" font-family="Courier,monospace" font-size="11.00">BaseException</text>
</g>
<!-- \\Exception -->
<g id="node13" class="node"><title>\\Exception</title>
<ellipse fill="none" stroke="black" cx="50.0456" cy="-436" rx="50.0912" ry="18"/>
<text text-anchor="middle" x="50.0456" y="-432.3" font-family="Times New Roman,serif" font-size="14.00" fill="gray">\Exception</text>
</g>
<!-- \\MrCrankHank\\ConsoleAccess\\Exceptions\\BaseException&#45;&gt;\\Exception -->
<g id="edge6" class="edge"><title>\\MrCrankHank\\ConsoleAccess\\Exceptions\\BaseException&#45;&gt;\\Exception</title>
<path fill="none" stroke="black" d="M260.336,-436C217.321,-436 155.777,-436 110.559,-436"/>
<polygon fill="none" stroke="black" points="110.306,-432.5 100.305,-436 110.305,-439.5 110.306,-432.5"/>
</g>
<!-- \\MrCrankHank\\ConsoleAccess\\Exceptions\\ConnectionNotPossibleException -->
<g id="node5" class="node"><title>\\MrCrankHank\\ConsoleAccess\\Exceptions\\ConnectionNotPossibleException</title>
<polygon fill="none" stroke="black" points="743.866,-508 524.866,-508 524.866,-472 743.866,-472 743.866,-508"/>
<text text-anchor="middle" x="634.366" y="-487.2" font-family="Courier,monospace" font-size="11.00">ConnectionNotPossibleException</text>
</g>
<!-- \\MrCrankHank\\ConsoleAccess\\Exceptions\\ConnectionNotPossibleException&#45;&gt;\\MrCrankHank\\ConsoleAccess\\Exceptions\\BaseException -->
<g id="edge7" class="edge"><title>\\MrCrankHank\\ConsoleAccess\\Exceptions\\ConnectionNotPossibleException&#45;&gt;\\MrCrankHank\\ConsoleAccess\\Exceptions\\BaseException</title>
<path fill="none" stroke="black" d="M526.404,-471.944C475.959,-463.428 417.588,-453.575 374.734,-446.34"/>
<polygon fill="none" stroke="black" points="375.181,-442.867 364.738,-444.653 374.016,-449.769 375.181,-442.867"/>
</g>
<!-- \\MrCrankHank\\ConsoleAccess\\Exceptions\\MissingCommandException -->
<g id="node6" class="node"><title>\\MrCrankHank\\ConsoleAccess\\Exceptions\\MissingCommandException</title>
<polygon fill="none" stroke="black" points="720.366,-454 548.366,-454 548.366,-418 720.366,-418 720.366,-454"/>
<text text-anchor="middle" x="634.366" y="-433.2" font-family="Courier,monospace" font-size="11.00">MissingCommandException</text>
</g>
<!-- \\MrCrankHank\\ConsoleAccess\\Exceptions\\MissingCommandException&#45;&gt;\\MrCrankHank\\ConsoleAccess\\Exceptions\\BaseException -->
<g id="edge8" class="edge"><title>\\MrCrankHank\\ConsoleAccess\\Exceptions\\MissingCommandException&#45;&gt;\\MrCrankHank\\ConsoleAccess\\Exceptions\\BaseException</title>
<path fill="none" stroke="black" d="M548.062,-436C493.46,-436 423.898,-436 374.744,-436"/>
<polygon fill="none" stroke="black" points="374.578,-432.5 364.578,-436 374.578,-439.5 374.578,-432.5"/>
</g>
<!-- \\MrCrankHank\\ConsoleAccess\\Exceptions\\PublicKeyMismatchException -->
<g id="node7" class="node"><title>\\MrCrankHank\\ConsoleAccess\\Exceptions\\PublicKeyMismatchException</title>
<polygon fill="none" stroke="black" points="730.366,-400 538.366,-400 538.366,-364 730.366,-364 730.366,-400"/>
<text text-anchor="middle" x="634.366" y="-379.2" font-family="Courier,monospace" font-size="11.00">PublicKeyMismatchException</text>
</g>
<!-- \\MrCrankHank\\ConsoleAccess\\Exceptions\\PublicKeyMismatchException&#45;&gt;\\MrCrankHank\\ConsoleAccess\\Exceptions\\BaseException -->
<g id="edge9" class="edge"><title>\\MrCrankHank\\ConsoleAccess\\Exceptions\\PublicKeyMismatchException&#45;&gt;\\MrCrankHank\\ConsoleAccess\\Exceptions\\BaseException</title>
<path fill="none" stroke="black" d="M538.255,-398.056C485.238,-407.005 420.779,-417.887 374.507,-425.698"/>
<polygon fill="none" stroke="black" points="373.904,-422.25 364.626,-427.366 375.069,-429.152 373.904,-422.25"/>
</g>
<!-- \\MrCrankHank\\ConsoleAccess\\Interfaces\\ConsoleAccessInterface -->
<g id="node9" class="node"><title>\\MrCrankHank\\ConsoleAccess\\Interfaces\\ConsoleAccessInterface</title>
<polygon fill="none" stroke="black" points="394.979,-185 229.979,-185 229.979,-149 394.979,-149 394.979,-185"/>
<text text-anchor="middle" x="312.479" y="-164.2" font-family="Courier,monospace" font-size="11.00">ConsoleAccessInterface</text>
</g>
<!-- \\MrCrankHank\\ConsoleAccess\\ConsoleAccess -->
<g id="node10" class="node"><title>\\MrCrankHank\\ConsoleAccess\\ConsoleAccess</title>
<polygon fill="none" stroke="black" points="686.366,-158 582.366,-158 582.366,-122 686.366,-122 686.366,-158"/>
<text text-anchor="middle" x="634.366" y="-137.2" font-family="Courier,monospace" font-size="11.00">ConsoleAccess</text>
</g>
<!-- \\MrCrankHank\\ConsoleAccess\\ConsoleAccess&#45;&gt;\\MrCrankHank\\ConsoleAccess\\Interfaces\\ConsoleAccessInterface -->
<g id="edge4" class="edge"><title>\\MrCrankHank\\ConsoleAccess\\ConsoleAccess&#45;&gt;\\MrCrankHank\\ConsoleAccess\\Interfaces\\ConsoleAccessInterface</title>
<path fill="none" stroke="black" stroke-dasharray="1,5" d="M582.325,-144.308C534.818,-148.318 462.898,-154.388 405.396,-159.242"/>
<polygon fill="none" stroke="black" points="404.873,-155.773 395.203,-160.102 405.462,-162.749 404.873,-155.773"/>
</g>
<!-- \\MrCrankHank\\ConsoleAccess\\ConsoleAccessServiceProvider -->
<g id="node11" class="node"><title>\\MrCrankHank\\ConsoleAccess\\ConsoleAccessServiceProvider</title>
<polygon fill="none" stroke="black" points="737.366,-104 531.366,-104 531.366,-68 737.366,-68 737.366,-104"/>
<text text-anchor="middle" x="634.366" y="-83.2" font-family="Courier,monospace" font-size="11.00">ConsoleAccessServiceProvider</text>
</g>
<!-- \\Illuminate\\Support\\ServiceProvider -->
<g id="node12" class="node"><title>\\Illuminate\\Support\\ServiceProvider</title>
<ellipse fill="none" stroke="black" cx="312.479" cy="-18" rx="140.275" ry="18"/>
<text text-anchor="middle" x="312.479" y="-14.3" font-family="Times New Roman,serif" font-size="14.00" fill="gray">\Illuminate\Support\ServiceProvider</text>
</g>
<!-- \\MrCrankHank\\ConsoleAccess\\ConsoleAccessServiceProvider&#45;&gt;\\Illuminate\\Support\\ServiceProvider -->
<g id="edge5" class="edge"><title>\\MrCrankHank\\ConsoleAccess\\ConsoleAccessServiceProvider&#45;&gt;\\Illuminate\\Support\\ServiceProvider</title>
<path fill="none" stroke="black" d="M548.482,-67.9558C501.134,-57.8908 442.437,-45.4132 395.55,-35.4462"/>
<polygon fill="none" stroke="black" points="396.241,-32.0151 385.732,-33.3592 394.786,-38.8621 396.241,-32.0151"/>
</g>
</g>
</svg>
